<?xml version="1.0" encoding="utf-8"?>
<!-- Generator: Adobe Illustrator 17.1.0, SVG Export Plug-In . SVG Version: 6.00 Build 0)  -->
<!DOCTYPE svg PUBLIC "-//W3C//DTD SVG 1.1//EN" "http://www.w3.org/Graphics/SVG/1.1/DTD/svg11.dtd">
<svg version="1.1" id="Layer_1" xmlns="http://www.w3.org/2000/svg" xmlns:xlink="http://www.w3.org/1999/xlink" x="0px" y="0px"
	 viewBox="0 0 841.9 1190.6" enable-background="new 0 0 841.9 1190.6" xml:space="preserve">
<g>
	<path fill="#FFFFFF" d="M603.6,812.1c-9.3,0-17.7-3.4-24.4-10.1L214.7,437.4c-13.5-13.5-13.5-35.4,0-48.8
		c13.5-13.5,35.4-13.5,48.8,0l364.5,364.5c13.5,13.5,13.5,35.4,0,48.8C621.3,807.9,612.1,812.1,603.6,812.1z"/>
</g>
<g>
	<path fill="#FFFFFF" d="M238.3,812.1c-9.3,0-17.7-3.4-24.4-10.1c-13.5-13.5-13.5-35.4,0-48.8l364.5-364.5
		c13.5-13.5,35.4-13.5,48.8,0c13.5,13.5,13.5,35.4,0,48.8L262.7,802C256.8,807.9,247.5,812.1,238.3,812.1z"/>
</g>
</svg>
