<?xml version="1.0" encoding="utf-8"?>
<!-- Generator: Adobe Illustrator 17.1.0, SVG Export Plug-In . SVG Version: 6.00 Build 0)  -->
<!DOCTYPE svg PUBLIC "-//W3C//DTD SVG 1.1//EN" "http://www.w3.org/Graphics/SVG/1.1/DTD/svg11.dtd">
<svg version="1.1" id="Layer_1" xmlns="http://www.w3.org/2000/svg" xmlns:xlink="http://www.w3.org/1999/xlink" x="0px" y="0px"
	 viewBox="0 0 100 100" enable-background="new 0 0 100 100" xml:space="preserve">
<polygon fill="none" stroke="#FFFFFF" stroke-miterlimit="10" points="25.2,42.7 36,41.6 43.2,34.5 44.2,23.9 33.7,23.9 25.7,32 "/>
<polyline fill="none" stroke="#FFFFFF" stroke-miterlimit="10" points="25.2,42.9 50.9,69 76.8,76.1 69.6,49.6 "/>
<path fill="none" stroke="#FFFFFF" stroke-miterlimit="10" d="M50.9,69c0,0,7.2,1.1,6.6-5.8L36,41.6"/>
<path fill="none" stroke="#FFFFFF" stroke-miterlimit="10" d="M57.5,63.2c0,0,8.1,1.2,7.1-7.2L43.1,34.4"/>
<path fill="none" stroke="#FFFFFF" stroke-miterlimit="10" d="M64.6,55.7c0,0,6.9,0.8,5-6.2L44.2,23.9"/>
<path fill="none" stroke="#FFFFFF" stroke-miterlimit="10" d="M36.6,30.1c0.7,0.7,0.2,2.3-1.1,3.7c-1.3,1.4-2.9,2-3.6,1.3
	c-0.7-0.7-0.2-2.3,1.1-3.7C34.4,30,35.9,29.4,36.6,30.1z"/>
<path fill="none" stroke="#FFFFFF" stroke-miterlimit="10" d="M65.5,73c5.6,1.5,11.3,3.1,11.3,3.1L74.1,66
	C74.1,66,72.9,73.6,65.5,73"/>
</svg>
