<?xml version="1.0" encoding="utf-8"?>
<!-- Generator: Adobe Illustrator 18.1.1, SVG Export Plug-In . SVG Version: 6.00 Build 0)  -->
<svg version="1.1" id="Layer_1" xmlns="http://www.w3.org/2000/svg" xmlns:xlink="http://www.w3.org/1999/xlink" x="0px" y="0px"
	 viewBox="-370 248.3 100 100" enable-background="new -370 248.3 100 100" xml:space="preserve">
<g>
	<path d="M-299.3,323.1c-1.1,0-2.1-0.4-2.9-1.2l-43.3-43.3c-1.6-1.6-1.6-4.2,0-5.8c1.6-1.6,4.2-1.6,5.8,0l43.3,43.3
		c1.6,1.6,1.6,4.2,0,5.8C-297.2,322.6-298.3,323.1-299.3,323.1z"/>
</g>
<g>
	<path d="M-342.7,323.1c-1.1,0-2.1-0.4-2.9-1.2c-1.6-1.6-1.6-4.2,0-5.8l43.3-43.3c1.6-1.6,4.2-1.6,5.8,0c1.6,1.6,1.6,4.2,0,5.8
		l-43.3,43.3C-340.5,322.6-341.6,323.1-342.7,323.1z"/>
</g>
</svg>
