<?xml version="1.0" encoding="utf-8"?>
<!-- Generator: Adobe Illustrator 16.0.0, SVG Export Plug-In . SVG Version: 6.00 Build 0)  -->
<!DOCTYPE svg PUBLIC "-//W3C//DTD SVG 1.1//EN" "http://www.w3.org/Graphics/SVG/1.1/DTD/svg11.dtd">
<svg version="1.1" id="Layer_1" xmlns="http://www.w3.org/2000/svg" xmlns:xlink="http://www.w3.org/1999/xlink" x="0px" y="0px"
	 width="100px" height="100px" viewBox="0 0 100 100" enable-background="new 0 0 100 100" xml:space="preserve">
<g>
	<path fill="#FFFFFF" d="M39.422,32.638c0,3.729-3.052,6.78-6.781,6.78H7.634c-3.729,0-6.78-3.052-6.78-6.78V7.634
		c0-3.729,3.052-6.78,6.78-6.78h25.007c3.729,0,6.78,3.052,6.78,6.78L39.422,32.638L39.422,32.638z"/>
	<path fill="#FFFFFF" d="M32.641,40.273H7.634C3.424,40.273,0,36.848,0,32.638V7.634C0,3.425,3.424,0,7.634,0h25.007
		c4.21,0,7.635,3.425,7.635,7.634v25.004c0,2.031-0.796,3.946-2.242,5.393C36.588,39.476,34.673,40.273,32.641,40.273z M7.634,1.708
		c-3.268,0-5.926,2.659-5.926,5.926v25.004c0,3.268,2.658,5.926,5.926,5.926h25.007c3.269,0,5.927-2.658,5.927-5.926L38.566,7.634
		c0-3.268-2.658-5.926-5.926-5.926H7.634z"/>
</g>
<g>
	<path fill="#7EB8DF" d="M29.039,30.73c-0.434,0-0.867-0.166-1.198-0.496L10.038,12.435c-0.662-0.662-0.662-1.735,0-2.397
		c0.661-0.662,1.734-0.663,2.397,0l17.802,17.798c0.662,0.662,0.662,1.735,0.001,2.397C29.907,30.564,29.473,30.73,29.039,30.73z"/>
</g>
<g>
	<path fill="#7EB8DF" d="M11.236,30.73c-0.434,0-0.868-0.166-1.199-0.497c-0.662-0.662-0.662-1.735,0-2.397l17.803-17.798
		c0.662-0.662,1.735-0.662,2.397,0c0.661,0.662,0.661,1.735-0.001,2.397L12.435,30.234C12.104,30.564,11.67,30.73,11.236,30.73z"/>
</g>
</svg>
