<?xml version="1.0" encoding="utf-8"?>
<!-- Generator: Adobe Illustrator 16.0.0, SVG Export Plug-In . SVG Version: 6.00 Build 0)  -->
<!DOCTYPE svg PUBLIC "-//W3C//DTD SVG 1.1//EN" "http://www.w3.org/Graphics/SVG/1.1/DTD/svg11.dtd">
<svg version="1.1" id="Layer_1" xmlns="http://www.w3.org/2000/svg" xmlns:xlink="http://www.w3.org/1999/xlink" x="0px" y="0px"
	 width="100px" height="100px" viewBox="0 0 100 100" enable-background="new 0 0 100 100" xml:space="preserve">
<polyline fill="none" stroke="#000000" stroke-width="2" stroke-linecap="round" stroke-linejoin="round" stroke-miterlimit="10" points="
	72.833,35.526 72.833,72.459 25.317,72.459 25.317,35.526 "/>
<path fill="none" stroke="#000000" stroke-width="2" stroke-miterlimit="10" d="M55.59,41.03V60.77c0,0,0.121,1.773-1.937,1.773
	h-8.839c0,0-2.139,0.119-2.139-2.102V41.03h-4.723c0,0-1.776-0.121-1.007-2.018L47.84,25.936c0,0,1.215-2.138,2.746,0.162
	c0,0,9.958,12.051,10.387,12.605c0.43,0.552,0.994,2.29-0.901,2.29C58.174,40.993,55.59,41.03,55.59,41.03z"/>
</svg>
