<?xml version="1.0" encoding="utf-8"?>
<!-- Generator: Adobe Illustrator 16.0.0, SVG Export Plug-In . SVG Version: 6.00 Build 0)  -->
<!DOCTYPE svg PUBLIC "-//W3C//DTD SVG 1.1//EN" "http://www.w3.org/Graphics/SVG/1.1/DTD/svg11.dtd">
<svg version="1.1" id="Layer_1" xmlns="http://www.w3.org/2000/svg" xmlns:xlink="http://www.w3.org/1999/xlink" x="0px" y="0px"
	 width="100px" height="100px" viewBox="0 0 100 100" enable-background="new 0 0 100 100" xml:space="preserve">
<polygon fill="none" stroke="#FFFFFF" stroke-width="2" stroke-linecap="round" stroke-linejoin="round" stroke-miterlimit="10" points="
	25.208,42.692 36.032,41.623 43.188,34.494 44.15,23.891 33.676,23.891 25.688,32.044 "/>
<polyline fill="none" stroke="#FFFFFF" stroke-width="2" stroke-linecap="round" stroke-linejoin="round" stroke-miterlimit="10" points="
	25.208,42.862 50.871,68.979 76.792,76.109 69.637,49.585 "/>
<path fill="none" stroke="#FFFFFF" stroke-width="2" stroke-linecap="round" stroke-linejoin="round" stroke-miterlimit="10" d="
	M50.871,68.979c0,0,7.242,1.069,6.581-5.826l-21.42-21.528"/>
<path fill="none" stroke="#FFFFFF" stroke-width="2" stroke-linecap="round" stroke-linejoin="round" stroke-miterlimit="10" d="
	M57.452,63.152c0,0,8.082,1.191,7.081-7.229l-21.419-21.53"/>
<path fill="none" stroke="#FFFFFF" stroke-width="2" stroke-linecap="round" stroke-linejoin="round" stroke-miterlimit="10" d="
	M64.619,55.743c0,0,6.884,0.763,5.018-6.158L44.15,23.891"/>
<path fill="none" stroke="#FFFFFF" stroke-width="2" stroke-miterlimit="10" d="M36.636,30.074c0.69,0.662,0.217,2.32-1.057,3.704
	c-1.273,1.383-2.864,1.969-3.553,1.306c-0.691-0.662-0.22-2.321,1.054-3.704C34.353,29.997,35.945,29.412,36.636,30.074z"/>
<path fill="none" stroke="#FFFFFF" stroke-width="2" stroke-linecap="round" stroke-linejoin="round" stroke-miterlimit="10" d="
	M65.534,73.012c5.61,1.543,11.258,3.098,11.258,3.098l-2.728-10.114C74.064,65.994,72.911,73.614,65.534,73.012"/>
</svg>
