<?xml version="1.0" encoding="utf-8"?>
<!-- Generator: Adobe Illustrator 16.0.0, SVG Export Plug-In . SVG Version: 6.00 Build 0)  -->
<!DOCTYPE svg PUBLIC "-//W3C//DTD SVG 1.1//EN" "http://www.w3.org/Graphics/SVG/1.1/DTD/svg11.dtd">
<svg version="1.1" id="Layer_1" xmlns="http://www.w3.org/2000/svg" xmlns:xlink="http://www.w3.org/1999/xlink" x="0px" y="0px"
	 width="100px" height="100px" viewBox="0 0 100 100" enable-background="new 0 0 100 100" xml:space="preserve">
<g>
	<polyline fill="#FFFFFF" points="72.447,1.315 44.208,29.556 39.379,45.517 55.339,40.689 83.58,12.448 	"/>
	<path fill="#7DB8DF" d="M39.379,46.833c-0.344,0-0.68-0.135-0.93-0.385c-0.343-0.344-0.47-0.848-0.329-1.312l4.829-15.961
		c0.063-0.207,0.176-0.396,0.329-0.55l28.239-28.24c0.514-0.514,1.348-0.514,1.861,0s0.514,1.347,0,1.86L45.372,30.253L41.35,43.546
		l13.292-4.021l28.008-28.007c0.514-0.514,1.348-0.514,1.861,0s0.514,1.347,0,1.86L56.27,41.62c-0.153,0.153-0.343,0.266-0.55,0.328
		l-15.96,4.828C39.634,46.814,39.506,46.833,39.379,46.833z"/>
</g>
<g>
	<path fill="#FFFFFF" d="M55.339,40.689c-1.522-0.295-4.575-0.468-7.649-3.543c-3.076-3.074-3.583-6.002-3.48-7.59"/>
	<path fill="#7DB8DF" d="M55.34,42.004c-0.082,0-0.167-0.008-0.251-0.023c-0.164-0.032-0.347-0.062-0.546-0.095
		c-1.665-0.276-4.764-0.788-7.784-3.811c-3.745-3.743-3.949-7.264-3.863-8.604c0.047-0.726,0.69-1.271,1.397-1.229
		c0.725,0.046,1.275,0.672,1.229,1.396c-0.063,0.983,0.112,3.592,3.097,6.575c2.424,2.425,4.788,2.815,6.353,3.074
		c0.226,0.038,0.433,0.072,0.617,0.107c0.714,0.139,1.18,0.829,1.042,1.542C56.509,41.568,55.958,42.004,55.34,42.004z"/>
</g>
<g>
	<path fill="#FFFFFF" d="M36.468,47.017H2.76c-0.829,0-1.5-0.672-1.5-1.5s0.671-1.5,1.5-1.5h33.708c0.829,0,1.5,0.672,1.5,1.5
		S37.296,47.017,36.468,47.017z"/>
</g>
<g>
	<path fill="#7DB8DF" d="M83.58,13.764c-0.337,0-0.674-0.128-0.931-0.385L71.517,2.246c-0.514-0.514-0.514-1.347,0-1.86
		s1.348-0.514,1.861,0l11.133,11.133c0.514,0.514,0.514,1.347,0,1.86C84.254,13.635,83.917,13.764,83.58,13.764z"/>
</g>
</svg>
