<?xml version="1.0" encoding="utf-8"?>
<!-- Generator: Adobe Illustrator 17.1.0, SVG Export Plug-In . SVG Version: 6.00 Build 0)  -->
<!DOCTYPE svg PUBLIC "-//W3C//DTD SVG 1.1//EN" "http://www.w3.org/Graphics/SVG/1.1/DTD/svg11.dtd">
<svg version="1.1" id="Layer_1" xmlns="http://www.w3.org/2000/svg" xmlns:xlink="http://www.w3.org/1999/xlink" x="0px" y="0px"
	 viewBox="0 0 100 100" enable-background="new 0 0 100 100" xml:space="preserve">
<path fill="none" stroke="#000000" stroke-width="2" stroke-miterlimit="10" d="M48.1,77.6"/>
<path fill="none" stroke="#000000" stroke-width="2" stroke-miterlimit="10" d="M62.8,78.2c0,1.4-1.1,2.4-2.4,2.4H35.9
	c-1.4,0-2.4-1.1-2.4-2.4l-3-42.7c0-1.4,1.1-2.4,2.4-2.4h30.5c1.4,0,2.4,1.1,2.4,2.4L62.8,78.2z"/>
<path fill="none" stroke="#000000" stroke-width="2" stroke-miterlimit="10" d="M67.4,25.7c0,1.5-1.2,2.7-2.7,2.7H31.5
	c-1.5,0-2.7-1.2-2.7-2.7v-2.8c0-1.5,15.7-2.7,17.2-2.7h4.3c1.5,0,17.2,1.2,17.2,2.7L67.4,25.7L67.4,25.7z"/>
<path fill="none" stroke="#000000" stroke-width="2" stroke-miterlimit="10" d="M43.2,19.6v-2.4c0-0.4,0.3-0.7,0.7-0.7h8.5
	c0.4,0,0.7,0.3,0.7,0.7v2.4"/>
<g>
	<path fill="none" stroke="#000000" stroke-width="2" stroke-miterlimit="10" d="M40.1,74.4l-2.5-35.1"/>
	<path fill="none" stroke="#000000" stroke-width="2" stroke-miterlimit="10" d="M56.2,74.4l2.5-35.1"/>
	<line fill="none" stroke="#000000" stroke-width="2" stroke-miterlimit="10" x1="47.9" y1="74.4" x2="47.9" y2="39.3"/>
</g>
</svg>
