<?xml version="1.0" encoding="utf-8"?>
<!-- Generator: Adobe Illustrator 16.0.0, SVG Export Plug-In . SVG Version: 6.00 Build 0)  -->
<!DOCTYPE svg PUBLIC "-//W3C//DTD SVG 1.1//EN" "http://www.w3.org/Graphics/SVG/1.1/DTD/svg11.dtd">
<svg version="1.1" id="Layer_1" xmlns="http://www.w3.org/2000/svg" xmlns:xlink="http://www.w3.org/1999/xlink" x="0px" y="0px"
	 width="100px" height="100px" viewBox="0 0 100 100" enable-background="new 0 0 100 100" xml:space="preserve">
<path fill="none" d="M48.122,77.623"/>
<path fill="none" d="M62.775,78.221c0,1.353-1.098,2.447-2.447,2.447H35.916c-1.351,0-2.447-1.096-2.447-2.447l-3.045-42.683
	c0-1.351,1.096-2.447,2.447-2.447h30.502c1.352,0,2.447,1.096,2.447,2.447L62.775,78.221z"/>
<path fill="none" d="M67.438,25.661c0,1.475-1.193,2.673-2.67,2.673h-33.29c-1.474,0-2.67-1.198-2.67-2.673v-2.819
	c0-1.472,15.708-2.67,17.181-2.67h4.269c1.475,0,17.182,1.198,17.182,2.67v2.819H67.438z"/>
<path fill="none" d="M43.174,19.602v-2.438c0-0.379,0.307-0.685,0.684-0.685h8.528c0.377,0,0.684,0.306,0.684,0.685v2.438"/>
<g>
	<path fill="none" d="M40.068,74.422l-2.504-35.085"/>
	<path fill="none" d="M56.176,74.422l2.504-35.085"/>
	<line fill="none" x1="47.911" y1="74.422" x2="47.911" y2="39.336"/>
</g>
</svg>
