<?xml version="1.0" encoding="utf-8"?>
<!-- Generator: Adobe Illustrator 17.1.0, SVG Export Plug-In . SVG Version: 6.00 Build 0)  -->
<!DOCTYPE svg PUBLIC "-//W3C//DTD SVG 1.1//EN" "http://www.w3.org/Graphics/SVG/1.1/DTD/svg11.dtd">
<svg version="1.1" id="Layer_1" xmlns="http://www.w3.org/2000/svg" xmlns:xlink="http://www.w3.org/1999/xlink" x="0px" y="0px"
	 viewBox="0 171.6 841.9 847.5" enable-background="new 0 171.6 841.9 847.5" xml:space="preserve">
<polyline fill="none" stroke="#FFFFFF" stroke-width="8" stroke-linecap="round" stroke-linejoin="round" stroke-miterlimit="10" points="
	612.9,473 612.9,784.5 213,784.5 213,473 "/>
<path fill="none" stroke="#FFFFFF" stroke-width="8" stroke-miterlimit="10" d="M358.7,565.8V400c0,0-0.8-15.2,16-15.2h74.1
	c0,0,17.7-0.8,17.7,17.7v163.3h39.6c0,0,15.2,0.8,8.4,16.8l-90.9,110.3c0,0-10.1,17.7-22.7-1.7c0,0-84.2-101.9-87.6-106.1
	c-3.4-5.1-8.4-19.4,7.6-19.4C336.9,565.8,358.7,565.8,358.7,565.8z"/>
</svg>
