<?xml version="1.0" encoding="utf-8"?>
<!-- Generator: Adobe Illustrator 17.1.0, SVG Export Plug-In . SVG Version: 6.00 Build 0)  -->
<!DOCTYPE svg PUBLIC "-//W3C//DTD SVG 1.1//EN" "http://www.w3.org/Graphics/SVG/1.1/DTD/svg11.dtd">
<svg version="1.1" id="Layer_1" xmlns="http://www.w3.org/2000/svg" xmlns:xlink="http://www.w3.org/1999/xlink" x="0px" y="0px"
	 viewBox="0 0 100 100" enable-background="new 0 0 100 100" xml:space="preserve">
<polyline fill="none" stroke="#FFFFFF" stroke-width="2" stroke-linecap="round" stroke-linejoin="round" stroke-miterlimit="10" points="
	25.3,62 25.3,25 72.8,25 72.8,62 "/>
<path fill="none" stroke="#FFFFFF" stroke-width="2" stroke-miterlimit="10" d="M42.6,56.5l0-19.7c0,0-0.1-1.8,1.9-1.8h8.8
	c0,0,2.1-0.1,2.1,2.1l0,19.4h4.7c0,0,1.8,0.1,1,2L50.3,71.6c0,0-1.2,2.1-2.7-0.2c0,0-10-12.1-10.4-12.6c-0.4-0.6-1-2.3,0.9-2.3
	C40,56.5,42.6,56.5,42.6,56.5z"/>
</svg>
