<?xml version="1.0" encoding="utf-8"?>
<!-- Generator: Adobe Illustrator 16.0.0, SVG Export Plug-In . SVG Version: 6.00 Build 0)  -->
<!DOCTYPE svg PUBLIC "-//W3C//DTD SVG 1.1//EN" "http://www.w3.org/Graphics/SVG/1.1/DTD/svg11.dtd" [
	<!ENTITY ns_extend "http://ns.adobe.com/Extensibility/1.0/">
	<!ENTITY ns_ai "http://ns.adobe.com/AdobeIllustrator/10.0/">
	<!ENTITY ns_graphs "http://ns.adobe.com/Graphs/1.0/">
	<!ENTITY ns_vars "http://ns.adobe.com/Variables/1.0/">
	<!ENTITY ns_imrep "http://ns.adobe.com/ImageReplacement/1.0/">
	<!ENTITY ns_sfw "http://ns.adobe.com/SaveForWeb/1.0/">
	<!ENTITY ns_custom "http://ns.adobe.com/GenericCustomNamespace/1.0/">
	<!ENTITY ns_adobe_xpath "http://ns.adobe.com/XPath/1.0/">

<svg version="1.1" id="Layer_1" xmlns:x="&ns_extend;" xmlns:i="&ns_ai;" xmlns:graph="&ns_graphs;"
	 xmlns="http://www.w3.org/2000/svg" xmlns:xlink="http://www.w3.org/1999/xlink" x="0px" y="0px" width="100px" height="100px"
	 viewBox="0 0 100 100" enable-background="new 0 0 100 100" xml:space="preserve">
<metadata>
	<sfw  xmlns="&ns_sfw;">
		<slices></slices>
		<sliceSourceBounds  width="71.013" height="53.696" bottomLeftOrigin="true" x="384.993" y="268.983"></sliceSourceBounds>
	</sfw>
</metadata>
<g>
	<g>
		<polygon fill="#FFFFFF" points="17.944,60.713 50,45.243 82.055,60.713 50,76.183 		"/>
		<path fill="#FFFFFF" d="M50,46.908l28.604,13.805L50,74.517L21.396,60.713L50,46.908 M50,43.577l-1.304,0.629L20.092,58.011
			l-5.599,2.702l5.599,2.702l28.604,13.804L50,77.848l1.304-0.629l28.604-13.804l5.599-2.702l-5.599-2.702L51.304,44.207L50,43.577
			L50,43.577z"/>
	</g>
	<g>
		<path fill="#231F20" d="M50,77.017c-0.375,0-0.751-0.086-1.088-0.249L20.309,62.964c-0.859-0.414-1.414-1.298-1.414-2.251
			s0.555-1.837,1.413-2.251l28.605-13.805c0.339-0.163,0.714-0.248,1.087-0.248c0.373,0,0.749,0.085,1.084,0.248L79.69,58.462
			c0.858,0.414,1.413,1.298,1.413,2.251s-0.555,1.837-1.413,2.251L51.087,76.768C50.751,76.931,50.375,77.017,50,77.017z M50,71.74
			l22.852-11.027L50,49.684L27.147,60.713L50,71.74z"/>
		<path fill="#FFFFFF" d="M50,45.909c0.148,0,0.297,0.033,0.434,0.099l28.604,13.805c0.346,0.167,0.565,0.517,0.565,0.9
			s-0.22,0.733-0.565,0.9L50.435,75.417c-0.137,0.066-0.286,0.1-0.435,0.1s-0.297-0.033-0.435-0.1L20.961,61.613
			c-0.346-0.167-0.565-0.517-0.565-0.9s0.22-0.733,0.565-0.9l28.604-13.805C49.703,45.942,49.852,45.909,50,45.909 M50,73.406
			l26.303-12.693L50,48.019L23.696,60.713L50,73.406 M50,42.909c-0.596,0-1.195,0.136-1.732,0.394L19.657,57.11
			c-1.375,0.664-2.262,2.078-2.262,3.603s0.887,2.938,2.261,3.602l28.605,13.805c0.537,0.26,1.139,0.397,1.738,0.397
			s1.202-0.138,1.741-0.399l28.601-13.802c1.374-0.664,2.262-2.078,2.262-3.603s-0.888-2.938-2.261-3.602L51.738,43.306
			C51.197,43.046,50.598,42.909,50,42.909L50,42.909z M30.599,60.713L50,51.35l19.4,9.363L50,70.075L30.599,60.713L30.599,60.713z"
			/>
	</g>
</g>
<g>
	<g>
		<polygon fill="#FFFFFF" points="17.944,51.669 50,36.199 82.055,51.669 50,67.137 		"/>
		<path fill="#FFFFFF" d="M50,37.864l28.604,13.805L50,65.472L21.396,51.669L50,37.864 M50,34.533l-1.304,0.629L20.092,48.967
			l-5.599,2.702l5.599,2.702l28.604,13.803L50,68.803l1.304-0.629l28.604-13.803l5.599-2.702l-5.599-2.702L51.304,35.163L50,34.533
			L50,34.533z"/>
	</g>
	<g>
		<path fill="#231F20" d="M50,67.972c-0.375,0-0.751-0.086-1.088-0.249L20.309,53.92c-0.859-0.414-1.414-1.298-1.414-2.251
			s0.555-1.836,1.413-2.251l28.605-13.805c0.34-0.163,0.714-0.248,1.087-0.248c0.374,0,0.749,0.086,1.086,0.249L79.69,49.417
			c0.858,0.415,1.413,1.298,1.413,2.251s-0.555,1.837-1.413,2.251L51.087,67.723C50.751,67.886,50.375,67.972,50,67.972z M50,62.696
			l22.852-11.027L50,40.64L27.147,51.669L50,62.696z"/>
		<path fill="#FFFFFF" d="M50.001,36.865c0.148,0,0.297,0.033,0.434,0.099l28.604,13.805c0.346,0.167,0.565,0.517,0.565,0.9
			s-0.22,0.733-0.565,0.9L50.435,66.372c-0.137,0.066-0.286,0.1-0.435,0.1s-0.297-0.033-0.435-0.1L20.961,52.569
			c-0.346-0.167-0.565-0.517-0.565-0.9s0.22-0.733,0.565-0.9l28.604-13.805C49.703,36.897,49.852,36.865,50.001,36.865 M50,64.361
			l26.303-12.692L50,38.975L23.696,51.669L50,64.361 M50.001,33.865c-0.596,0-1.195,0.136-1.733,0.394L19.657,48.067
			c-1.375,0.664-2.262,2.078-2.262,3.602s0.887,2.938,2.261,3.602l28.605,13.804c0.537,0.26,1.139,0.397,1.738,0.397
			s1.202-0.138,1.741-0.399l28.601-13.801c1.374-0.664,2.262-2.078,2.262-3.603s-0.888-2.938-2.261-3.602L51.738,34.262
			C51.201,34.002,50.6,33.865,50.001,33.865L50.001,33.865z M30.599,51.669L50,42.306l19.4,9.363L50,61.03L30.599,51.669
			L30.599,51.669z"/>
	</g>
</g>
<g>
	<g>
		<polygon fill="#FFFFFF" points="17.944,42.624 50,27.155 82.055,42.624 50,58.094 		"/>
		<path fill="#FFFFFF" d="M50,28.82l28.604,13.804L50,56.428L21.396,42.624L50,28.82 M50,25.489l-1.304,0.629L20.092,39.922
			l-5.599,2.702l5.599,2.702L48.696,59.13L50,59.759l1.304-0.629l28.604-13.804l5.599-2.702l-5.599-2.702L51.304,26.119L50,25.489
			L50,25.489z"/>
	</g>
	<g>
		<path fill="#231F20" d="M50,58.928c-0.375,0-0.751-0.086-1.088-0.249L20.309,44.875c-0.858-0.414-1.414-1.297-1.414-2.251
			s0.555-1.838,1.415-2.252l28.604-13.803c0.335-0.162,0.712-0.249,1.086-0.249s0.751,0.086,1.088,0.25L79.69,40.373
			c0.857,0.414,1.413,1.297,1.413,2.251s-0.556,1.838-1.414,2.252L51.087,58.679C50.751,58.842,50.375,58.928,50,58.928z M50,53.651
			l22.852-11.027L50,31.596L27.147,42.624L50,53.651z"/>
		<path fill="#FFFFFF" d="M50,27.82c0.148,0,0.297,0.033,0.435,0.1l28.604,13.804c0.346,0.167,0.565,0.517,0.565,0.9
			s-0.22,0.734-0.565,0.9L50.435,57.328c-0.137,0.066-0.286,0.1-0.435,0.1s-0.297-0.033-0.435-0.1L20.961,43.524
			c-0.346-0.167-0.565-0.517-0.565-0.9s0.22-0.734,0.565-0.9L49.565,27.92C49.703,27.854,49.852,27.82,50,27.82 M50,55.317
			l26.303-12.693L50,29.931L23.696,42.624L50,55.317 M50,24.82c-0.6,0-1.202,0.138-1.741,0.399L19.657,39.022
			c-1.373,0.661-2.262,2.075-2.262,3.602s0.889,2.941,2.264,3.604L48.262,60.03c0.537,0.26,1.139,0.397,1.738,0.397
			s1.202-0.138,1.741-0.399l28.601-13.802c1.373-0.661,2.262-2.075,2.262-3.602s-0.889-2.941-2.264-3.604L51.738,25.218
			C51.202,24.958,50.6,24.82,50,24.82L50,24.82z M30.599,42.624L50,33.262l19.4,9.362L50,51.986L30.599,42.624L30.599,42.624z"/>
	</g>
</g>
</svg>
