<?xml version="1.0" encoding="utf-8"?>
<!-- Generator: Adobe Illustrator 16.0.0, SVG Export Plug-In . SVG Version: 6.00 Build 0)  -->
<!DOCTYPE svg PUBLIC "-//W3C//DTD SVG 1.1//EN" "http://www.w3.org/Graphics/SVG/1.1/DTD/svg11.dtd">
<svg version="1.1" id="Layer_1" xmlns="http://www.w3.org/2000/svg" xmlns:xlink="http://www.w3.org/1999/xlink" x="0px" y="0px"
	 width="100px" height="100px" viewBox="0 0 100 100" enable-background="new 0 0 100 100" xml:space="preserve">
<g>
	<path fill="none" stroke-linecap="round" stroke-miterlimit="10" d="M25.027,63.143l-1.962,0.956
		c-0.495,0.241-0.491,0.629,0.007,0.862l26.105,12.207c0.498,0.233,1.313,0.232,1.811-0.002l26.106-12.275
		c0.498-0.234,0.5-0.622,0.006-0.862l-1.931-0.937"/>
</g>
<g>
	<path fill="none" stroke-linecap="round" stroke-miterlimit="10" d="M25.027,52.223l-1.962,0.957
		c-0.495,0.24-0.491,0.628,0.007,0.861l26.105,12.206c0.498,0.233,1.313,0.232,1.811-0.002l26.106-12.274
		c0.498-0.234,0.5-0.622,0.006-0.862l-1.931-0.937"/>
</g>
<g>
	<path fill="#FFFFFF" d="M50,34.417"/>
	<path fill="none" stroke-linecap="round" stroke-miterlimit="10" d="M50,34.417"/>
</g>
<g>
	<path fill="none" stroke-miterlimit="10" d="M49.094,55.326c0.498,0.233,1.313,0.232,1.811-0.002l26.106-12.275
		c0.498-0.234,0.5-0.622,0.006-0.862L50.899,29.52c-0.495-0.24-1.304-0.239-1.798,0.002L22.982,42.258
		c-0.495,0.241-0.491,0.629,0.007,0.862L49.094,55.326z"/>
</g>
</svg>
