<?xml version="1.0" encoding="utf-8"?>
<!-- Generator: Adobe Illustrator 18.0.0, SVG Export Plug-In . SVG Version: 6.00 Build 0)  -->
<!DOCTYPE svg PUBLIC "-//W3C//DTD SVG 1.1//EN" "http://www.w3.org/Graphics/SVG/1.1/DTD/svg11.dtd">
<svg version="1.1" id="Layer_1" xmlns="http://www.w3.org/2000/svg" xmlns:xlink="http://www.w3.org/1999/xlink" x="0px" y="0px"
	 viewBox="0 0 425.2 425.2" enable-background="new 0 0 425.2 425.2" xml:space="preserve">
<polyline fill="none" stroke="#000000" stroke-width="8" stroke-linecap="round" stroke-linejoin="round" stroke-miterlimit="10" points="
	316,149.5 316,315 103.5,315 103.5,149.5 "/>
<path fill="none" stroke="#000000" stroke-width="8" stroke-miterlimit="10" d="M180.9,198.8v-88.1c0,0-0.4-8.1,8.5-8.1h39.4
	c0,0,9.4-0.4,9.4,9.4v86.8h21c0,0,8.1,0.4,4.5,8.9l-48.3,58.6c0,0-5.4,9.4-12.1-0.9c0,0-44.7-54.2-46.6-56.4
	c-1.8-2.7-4.5-10.3,4-10.3C169.3,198.8,180.9,198.8,180.9,198.8z"/>
</svg>
